<?xml version="1.0" encoding="iso-8859-1"?>
<!-- Generator: Adobe Illustrator 19.0.0, SVG Export Plug-In . SVG Version: 6.00 Build 0)  -->
<svg version="1.1" id="Capa_1" xmlns="http://www.w3.org/2000/svg" xmlns:xlink="http://www.w3.org/1999/xlink" x="0px" y="0px"
	 viewBox="0 0 512 512" style="enable-background:new 0 0 512 512;" xml:space="preserve">
<path style="fill:#E8A864;" d="M228.281,180.966h-60.557v70.621h0.618c1.13,7.247,4.529,13.956,9.71,19.156l24.982,24.982v150.069
	h105.931V295.724l19.421-25.865c4.034-5.305,6.479-11.635,7.062-18.273l0,0v-70.621H228.281z"/>
<rect y="154.483" style="fill:#E5E5E5;" width="35.31" height="52.966"/>
<rect y="180.966" style="fill:#CFCFCF;" width="35.31" height="26.483"/>
<g>
	<path style="fill:#636e72;" d="M57.379,110.345L57.379,110.345c12.191,0,22.069,9.878,22.069,22.069v97.103
		c0,12.191-9.878,22.069-22.069,22.069l0,0c-12.191,0-22.069-9.878-22.069-22.069v-97.103
		C35.31,120.223,45.188,110.345,57.379,110.345z"/>
	<path style="fill:#636e72;" d="M105.931,66.207L105.931,66.207c14.627,0,26.483,11.855,26.483,26.483v176.552
		c0,14.627-11.855,26.483-26.483,26.483l0,0c-14.627,0-26.483-11.855-26.483-26.483V92.69
		C79.448,78.062,91.304,66.207,105.931,66.207z"/>
</g>
<rect x="476.69" y="154.483" style="fill:#E5E5E5;" width="35.31" height="52.966"/>
<g>
	<path style="fill:#636e72;" d="M454.621,251.586L454.621,251.586c-12.191,0-22.069-9.878-22.069-22.069v-97.103
		c0-12.191,9.878-22.069,22.069-22.069l0,0c12.191,0,22.069,9.878,22.069,22.069v97.103
		C476.69,241.708,466.812,251.586,454.621,251.586z"/>
	<path style="fill:#636e72;" d="M406.069,295.724L406.069,295.724c-14.627,0-26.483-11.855-26.483-26.483V92.69
		c0-14.627,11.855-26.483,26.483-26.483l0,0c14.627,0,26.483,11.855,26.483,26.483v176.552
		C432.552,283.869,420.696,295.724,406.069,295.724z"/>
</g>
<polygon style="fill:#E5E5E5;" points="326.621,154.483 185.379,154.483 132.414,154.483 132.414,207.448 167.724,207.448 
	244.701,207.448 379.586,207.448 379.586,154.483 "/>
<polygon style="fill:#CFCFCF;" points="326.621,180.966 185.379,180.966 132.414,180.966 132.414,207.448 167.724,207.448 
	244.701,207.448 379.586,207.448 379.586,180.966 "/>
<g>
	<path style="fill:#F2BB80;" d="M203.034,119.172c-9.754,0-17.655,7.901-17.655,17.655v26.483c0,9.754,7.901,17.655,17.655,17.655
		c9.754,0,17.655-7.901,17.655-17.655v-26.483C220.69,127.073,212.789,119.172,203.034,119.172z"/>
	<path style="fill:#F2BB80;" d="M238.345,119.172c-9.754,0-17.655,7.901-17.655,17.655v26.483c0,9.754,7.901,17.655,17.655,17.655
		c9.754,0,17.655-7.901,17.655-17.655v-26.483C256,127.073,248.099,119.172,238.345,119.172z"/>
	<path style="fill:#F2BB80;" d="M273.655,119.172c-9.754,0-17.655,7.901-17.655,17.655v26.483c0,9.754,7.901,17.655,17.655,17.655
		c9.754,0,17.655-7.901,17.655-17.655v-26.483C291.31,127.073,283.41,119.172,273.655,119.172z"/>
	<path style="fill:#F2BB80;" d="M308.966,119.172c-9.754,0-17.655,7.901-17.655,17.655v26.483c0,9.754,7.901,17.655,17.655,17.655
		s17.655-7.901,17.655-17.655v-26.483C326.621,127.073,318.72,119.172,308.966,119.172z"/>
</g>
<g>
	<path style="fill:#2d3436;" d="M57.379,189.793c-12.191,0-22.069-9.878-22.069-22.069v61.793c0,12.191,9.878,22.069,22.069,22.069
		s22.069-9.878,22.069-22.069v-61.793C79.448,179.915,69.57,189.793,57.379,189.793z"/>
	<path style="fill:#2d3436;" d="M105.931,189.793c-14.627,0-26.483-11.855-26.483-26.483v105.931
		c0,14.627,11.855,26.483,26.483,26.483s26.483-11.855,26.483-26.483V163.31C132.414,177.938,120.558,189.793,105.931,189.793z"/>
</g>
<rect x="476.69" y="180.966" style="fill:#CFCFCF;" width="35.31" height="26.483"/>
<g>
	<path style="fill:#2d3436;" d="M454.621,189.793c12.191,0,22.069-9.878,22.069-22.069v61.793c0,12.191-9.878,22.069-22.069,22.069
		c-12.191,0-22.069-9.878-22.069-22.069v-61.793C432.552,179.915,442.43,189.793,454.621,189.793z"/>
	<path style="fill:#2d3436;" d="M406.069,189.793c14.627,0,26.483-11.855,26.483-26.483v105.931
		c0,14.627-11.855,26.483-26.483,26.483s-26.483-11.855-26.483-26.483V163.31C379.586,177.938,391.442,189.793,406.069,189.793z"/>
</g>
<path style="fill:#F2BB80;" d="M256,295.724c0-26.483-13.506-48.64-33.457-55.261l-19.509-6.532v-17.655h26.483
	c6.268-0.035,12.05-3.399,15.183-8.828c2.392-3.672,3.284-8.13,2.472-12.447c-2.225-8.527-10.081-14.362-18.891-14.036h-60.557
	v64.794c-0.009,9.366,3.708,18.353,10.328,24.982l24.982,24.982v150.069h105.931V295.724H256z"/>
<g>
</g>
<g>
</g>
<g>
</g>
<g>
</g>
<g>
</g>
<g>
</g>
<g>
</g>
<g>
</g>
<g>
</g>
<g>
</g>
<g>
</g>
<g>
</g>
<g>
</g>
<g>
</g>
<g>
</g>
</svg>
