<?xml version="1.0" encoding="iso-8859-1"?>
<!-- Generator: Adobe Illustrator 19.0.0, SVG Export Plug-In . SVG Version: 6.00 Build 0)  -->
<svg version="1.1" id="Layer_1" xmlns="http://www.w3.org/2000/svg" xmlns:xlink="http://www.w3.org/1999/xlink" x="0px" y="0px"
	 viewBox="0 0 512.029 512.029" style="enable-background:new 0 0 512.029 512.029;" xml:space="preserve">
<path style="fill:#1BA8C9;" d="M511.948,175.432c-31.996,0-31.996,25.073-63.992,25.073s-31.996-25.073-63.992-25.073
	c-31.995,0-31.995,25.073-63.989,25.073s-31.994-25.073-63.987-25.073c-31.992,0-31.992,25.073-63.984,25.073
	c-31.993,0-31.993-25.073-63.987-25.073s-31.994,25.073-63.988,25.073c-31.992,0-31.992-25.073-63.985-25.073v68.046
	c31.992,0,31.992,25.073,63.985,25.073c31.994,0,31.994-25.073,63.988-25.073c31.993,0,31.993,25.073,63.987,25.073
	c31.992,0,31.992-25.073,63.984-25.073c31.994,0,31.994,25.073,63.987,25.073c31.995,0,31.995-25.073,63.989-25.073
	c31.996,0,31.996,25.073,63.992,25.073s31.996-25.073,63.992-25.073"/>
<path style="fill:#53C5F2;" d="M511.948,243.478c-31.996,0-31.996,25.073-63.992,25.073s-31.996-25.073-63.992-25.073
	c-31.995,0-31.995,25.073-63.989,25.073s-31.994-25.073-63.987-25.073c-31.992,0-31.992,25.073-63.984,25.073
	c-31.993,0-31.993-25.073-63.987-25.073s-31.994,25.073-63.988,25.073c-31.992,0-31.992-25.073-63.985-25.073v68.046
	c31.992,0,31.992,25.073,63.985,25.073c31.994,0,31.994-25.073,63.988-25.073c31.993,0,31.993,25.073,63.987,25.073
	c31.992,0,31.992-25.073,63.984-25.073c31.994,0,31.994,25.073,63.987,25.073c31.995,0,31.995-25.073,63.989-25.073
	c31.996,0,31.996,25.073,63.992,25.073s31.996-25.073,63.992-25.073"/>
<path style="fill:#1BA8C9;" d="M511.948,39.34c-31.996,0-31.996,25.073-63.992,25.073S415.96,39.34,383.964,39.34
	c-31.995,0-31.995,25.073-63.989,25.073S287.98,39.34,255.987,39.34c-31.992,0-31.992,25.073-63.984,25.073
	c-31.993,0-31.993-25.073-63.987-25.073S96.022,64.413,64.028,64.413c-31.992,0-31.992-25.073-63.985-25.073v68.046
	c31.992,0,31.992,25.073,63.985,25.073c31.994,0,31.994-25.073,63.988-25.073c31.993,0,31.993,25.073,63.987,25.073
	c31.992,0,31.992-25.073,63.984-25.073c31.994,0,31.994,25.073,63.987,25.073c31.995,0,31.995-25.073,63.989-25.073
	c31.996,0,31.996,25.073,63.992,25.073s31.996-25.073,63.992-25.073"/>
<path style="fill:#53C5F2;" d="M511.948,107.387c-31.996,0-31.996,25.073-63.992,25.073s-31.996-25.073-63.992-25.073
	c-31.995,0-31.995,25.073-63.989,25.073s-31.994-25.073-63.987-25.073c-31.992,0-31.992,25.073-63.984,25.073
	c-31.993,0-31.993-25.073-63.987-25.073S96.022,132.46,64.028,132.46c-31.992,0-31.992-25.073-63.985-25.073v68.046
	c31.992,0,31.992,25.073,63.985,25.073c31.994,0,31.994-25.073,63.988-25.073c31.993,0,31.993,25.073,63.987,25.073
	c31.992,0,31.992-25.073,63.984-25.073c31.994,0,31.994,25.073,63.987,25.073c31.995,0,31.995-25.073,63.989-25.073
	c31.996,0,31.996,25.073,63.992,25.073s31.996-25.073,63.992-25.073"/>
<path style="fill:#FFCDA5;" d="M401.213,313.107c-4.638-1.912-10.155-3.145-17.248-3.145c-31.999,0-31.999,25.073-63.988,25.073
	c-31.999,0-31.999-25.073-63.988-25.073S224,335.035,192,335.035c-31.989,0-31.989-25.073-63.988-25.073l123.902-60.823
	l-58.702-73.38L53.326,202.128c0-22.075,15.086-41.297,36.523-46.552l31.017-7.595l83.2-20.382
	c6.958-1.703,14.312,0.188,19.599,5.035l92.603,85.039c0,17.645,6.738,35.29,20.194,48.756
	c13.466,13.466,31.111,20.194,48.756,20.194L401.213,313.107z"/>
<path style="fill:#EDB892;" d="M251.918,249.14c0,0,5.769,60.708,117.025,85.78c111.256,25.072-148.863,12.535-148.863,12.535
	l-97.152-14.102l5.088-23.395"/>
<path style="fill:#FFCDA5;" d="M433.964,168.912c26.932,26.932,26.932,70.58,0,97.513c-13.466,13.466-31.09,20.194-48.746,20.194
	c-17.645,0-35.29-6.728-48.756-20.194c-13.456-13.466-20.194-31.111-20.194-48.756s6.738-35.29,20.194-48.756
	C363.384,141.99,407.042,141.99,433.964,168.912z"/>
<path style="fill:#EDB892;" d="M378.77,266.425c-13.456-13.466-20.194-31.111-20.194-48.756s6.738-35.29,20.194-48.756
	c8.01-8.01,17.506-13.617,27.597-16.86c-23.827-7.659-50.993-2.052-69.905,16.86c-13.456,13.466-20.194,31.111-20.194,48.756
	s6.738,35.29,20.194,48.756c13.466,13.466,31.111,20.194,48.756,20.194c7.15,0,14.289-1.123,21.154-3.331
	C396.281,280.046,386.783,274.438,378.77,266.425z"/>
<path style="fill:#1BA8C9;" d="M511.948,311.525c-31.996,0-31.996,25.073-63.992,25.073s-31.996-25.073-63.992-25.073
	c-31.995,0-31.995,25.073-63.989,25.073s-31.994-25.073-63.987-25.073c-31.992,0-31.992,25.073-63.984,25.073
	c-31.993,0-31.993-25.073-63.987-25.073s-31.994,25.073-63.988,25.073c-31.992,0-31.992-25.073-63.985-25.073v68.046
	c31.992,0,31.992,25.073,63.985,25.073c31.994,0,31.994-25.073,63.988-25.073c31.993,0,31.993,25.073,63.987,25.073
	c31.992,0,31.992-25.073,63.984-25.073c31.994,0,31.994,25.073,63.987,25.073c31.995,0,31.995-25.073,63.989-25.073
	c31.996,0,31.996,25.073,63.992,25.073s31.996-25.073,63.992-25.073"/>
<path style="fill:#53C5F2;" d="M511.948,379.571c-31.996,0-31.996,25.073-63.992,25.073s-31.996-25.073-63.992-25.073
	c-31.995,0-31.995,25.073-63.989,25.073s-31.994-25.073-63.987-25.073c-31.992,0-31.992,25.073-63.984,25.073
	c-31.993,0-31.993-25.073-63.987-25.073s-31.994,25.073-63.988,25.073c-31.992,0-31.992-25.073-63.985-25.073v68.046
	c31.992,0,31.992,25.073,63.985,25.073c31.994,0,31.994-25.073,63.988-25.073c31.993,0,31.993,25.073,63.987,25.073
	c31.992,0,31.992-25.073,63.984-25.073c31.994,0,31.994,25.073,63.987,25.073c31.995,0,31.995-25.073,63.989-25.073
	c31.996,0,31.996,25.073,63.992,25.073s31.996-25.073,63.992-25.073"/>
<path style="fill:#F74F7B;" d="M433.971,266.425c-3.75,3.75-7.825,6.979-12.129,9.674v-0.01c8.807-18.7-0.324-48.359-23.506-71.541
	c-23.172-23.172-52.841-32.313-71.541-23.506c2.695-4.315,5.923-8.379,9.674-12.129c26.922-26.922,70.58-26.922,97.502,0
	C460.893,195.845,460.893,239.493,433.971,266.425z"/>
<path style="fill:#E52E66;" d="M336.465,168.83c-3.75,3.75-6.979,7.814-9.674,12.129c11.021-5.19,25.85-4.141,40.914,2.333
	c2.968-5.171,6.646-10.047,11.062-14.467c8.009-8.009,17.503-13.616,27.593-16.859C382.536,144.312,355.374,149.921,336.465,168.83z
	"/>
<path style="fill:#EDB892;" d="M193.212,175.759L53.326,202.128c0-22.075,15.086-41.297,36.523-46.552l31.017-7.595
	C120.866,147.981,130.446,177.65,193.212,175.759z"/>
<g>
	
		<rect x="361.697" y="226.556" transform="matrix(-0.7071 -0.7071 0.7071 -0.7071 478.5938 656.5754)" style="fill:#F74F7B;" width="27.162" height="5.223"/>
</g>
<g>
	<path style="fill:#53C5F2;" d="M361.977,223.714c-2.005,0-4.011-0.765-5.54-2.295l-8.864-8.864c-3.06-3.06-3.06-8.021,0-11.08
		c3.06-3.06,8.021-3.06,11.08,0l8.864,8.864c3.06,3.06,3.06,8.021,0,11.08C365.987,222.95,363.983,223.714,361.977,223.714z"/>
	<path style="fill:#53C5F2;" d="M397.436,259.174c-2.005,0-4.011-0.765-5.54-2.295l-8.864-8.864c-3.06-3.06-3.06-8.021,0-11.08
		c3.06-3.06,8.021-3.06,11.08,0l8.864,8.864c3.06,3.06,3.06,8.021,0,11.08C401.447,258.408,399.441,259.174,397.436,259.174z"/>
</g>
<rect x="0.04" y="65.204" transform="matrix(-1 -0.0056 0.0056 -1 511.6005 147.5109)" style="fill:#F74F7B;" width="511.934" height="15.671"/>
<g>
	<path style="fill:#FCE45B;" d="M75.625,50.784L33.085,50.89c-5.993,0.015-10.841,4.886-10.826,10.881l0.06,23.736
		c0.015,5.993,4.886,10.841,10.881,10.826l42.539-0.107c5.993-0.015,10.841-4.886,10.826-10.881l-0.06-23.736
		C86.489,55.615,81.618,50.769,75.625,50.784z"/>
	<path style="fill:#FCE45B;" d="M210.012,50.446l-42.539,0.107c-5.993,0.015-10.841,4.886-10.826,10.881l0.06,23.736
		c0.015,5.993,4.886,10.841,10.881,10.826l42.539-0.107c5.993-0.015,10.841-4.886,10.826-10.881l-0.06-23.736
		C220.878,55.278,216.007,50.43,210.012,50.446z"/>
	<path style="fill:#FCE45B;" d="M478.789,49.77l-42.539,0.107c-5.993,0.015-10.841,4.886-10.826,10.881l0.06,23.736
		c0.015,5.993,4.886,10.841,10.881,10.826l42.539-0.107c5.993-0.015,10.841-4.886,10.826-10.881l-0.06-23.736
		C489.654,54.602,484.783,49.755,478.789,49.77z"/>
	<path style="fill:#FCE45B;" d="M344.401,50.108l-42.539,0.107c-5.993,0.015-10.841,4.886-10.826,10.881l0.06,23.736
		c0.015,5.993,4.886,10.841,10.881,10.826l42.539-0.107c5.993-0.015,10.841-4.886,10.826-10.881l-0.06-23.736
		C355.266,54.939,350.395,50.093,344.401,50.108z"/>
</g>
<g>
	<path style="fill:#E5CB4C;" d="M56.508,96.276L33.2,96.335c-5.997,0.015-10.867-4.831-10.882-10.827l-0.06-23.736
		c-0.015-5.986,4.831-10.857,10.827-10.871l23.307-0.059c-5.997,0.015-10.842,4.885-10.827,10.871l0.06,23.736
		C45.642,91.446,50.511,96.291,56.508,96.276z"/>
	<path style="fill:#E5CB4C;" d="M190.898,95.938l-23.307,0.059c-5.997,0.015-10.867-4.831-10.882-10.827l-0.06-23.736
		c-0.015-5.986,4.831-10.857,10.827-10.871l23.307-0.059c-5.997,0.015-10.842,4.885-10.827,10.871l0.06,23.736
		C180.031,91.107,184.902,95.953,190.898,95.938z"/>
	<path style="fill:#E5CB4C;" d="M459.668,95.262l-23.307,0.059c-5.986,0.015-10.867-4.831-10.882-10.827l-0.06-23.736
		c-0.015-5.986,4.841-10.857,10.827-10.871l23.307-0.059c-5.986,0.015-10.831,4.885-10.817,10.871l0.06,23.736
		C448.812,90.431,453.682,95.276,459.668,95.262z"/>
	<path style="fill:#E5CB4C;" d="M325.288,95.6l-23.318,0.059c-5.986,0.015-10.857-4.831-10.871-10.827l-0.06-23.736
		c-0.015-5.986,4.831-10.857,10.817-10.871l23.318-0.059c-5.997,0.015-10.842,4.885-10.827,10.871l0.06,23.736
		C314.422,90.77,319.291,95.615,325.288,95.6z"/>
</g>
<rect x="0.056" y="407.903" transform="matrix(-1 -0.0056 0.0056 -1 509.7129 832.9045)" style="fill:#F74F7B;" width="511.934" height="15.671"/>
<g>
	<path style="fill:#FCE45B;" d="M75.625,393.477l-42.539,0.107c-5.993,0.015-10.841,4.886-10.826,10.881l0.06,23.736
		c0.015,5.993,4.886,10.841,10.881,10.825l42.539-0.107c5.993-0.015,10.841-4.886,10.826-10.881l-0.06-23.736
		C86.489,398.309,81.618,393.462,75.625,393.477z"/>
	<path style="fill:#FCE45B;" d="M210.012,393.138l-42.539,0.107c-5.993,0.015-10.841,4.886-10.826,10.881l0.06,23.736
		c0.015,5.993,4.886,10.841,10.881,10.825l42.539-0.107c5.993-0.015,10.841-4.886,10.826-10.881l-0.06-23.736
		C220.878,397.97,216.007,393.124,210.012,393.138z"/>
	<path style="fill:#FCE45B;" d="M478.789,392.462l-42.539,0.107c-5.993,0.015-10.841,4.886-10.826,10.881l0.06,23.736
		c0.015,5.993,4.886,10.841,10.881,10.826l42.539-0.107c5.993-0.015,10.841-4.886,10.826-10.881l-0.06-23.736
		C489.654,397.294,484.783,392.448,478.789,392.462z"/>
	<path style="fill:#FCE45B;" d="M344.401,392.801l-42.539,0.107c-5.993,0.015-10.841,4.886-10.826,10.881l0.06,23.736
		c0.015,5.993,4.886,10.841,10.881,10.825l42.539-0.107c5.993-0.015,10.841-4.886,10.826-10.881l-0.06-23.736
		C355.266,397.633,350.395,392.785,344.401,392.801z"/>
</g>
<g>
	<path style="fill:#E5CB4C;" d="M56.508,438.968L33.2,439.027c-5.997,0.015-10.867-4.831-10.882-10.827l-0.06-23.736
		c-0.015-5.986,4.831-10.857,10.827-10.871l23.307-0.059c-5.997,0.015-10.842,4.885-10.827,10.871l0.06,23.736
		C45.642,434.139,50.511,438.984,56.508,438.968z"/>
	<path style="fill:#E5CB4C;" d="M190.898,438.631l-23.307,0.059c-5.997,0.015-10.867-4.831-10.882-10.827l-0.06-23.736
		c-0.015-5.986,4.831-10.857,10.827-10.871l23.307-0.059c-5.997,0.015-10.842,4.885-10.827,10.871l0.06,23.736
		C180.031,433.8,184.902,438.646,190.898,438.631z"/>
	<path style="fill:#E5CB4C;" d="M459.668,437.955l-23.307,0.059c-5.986,0.015-10.867-4.831-10.882-10.827l-0.06-23.736
		c-0.015-5.986,4.841-10.857,10.827-10.871l23.307-0.059c-5.986,0.015-10.831,4.885-10.817,10.871l0.06,23.736
		C448.812,433.124,453.682,437.97,459.668,437.955z"/>
	<path style="fill:#E5CB4C;" d="M325.288,438.293l-23.318,0.059c-5.986,0.015-10.857-4.831-10.871-10.827l-0.06-23.736
		c-0.015-5.986,4.831-10.857,10.817-10.871l23.318-0.059c-5.997,0.015-10.842,4.885-10.827,10.871l0.06,23.736
		C314.422,433.462,319.291,438.308,325.288,438.293z"/>
</g>
<g>
</g>
<g>
</g>
<g>
</g>
<g>
</g>
<g>
</g>
<g>
</g>
<g>
</g>
<g>
</g>
<g>
</g>
<g>
</g>
<g>
</g>
<g>
</g>
<g>
</g>
<g>
</g>
<g>
</g>
</svg>
